<svg id="abfc3d34-f33d-47e1-a480-72ab0d63439f" data-name="Layer 1" xmlns="http://www.w3.org/2000/svg" width="865.76" height="682.89" viewBox="0 0 865.76 682.89"><path d="M71.05,477.51A1.11,1.11,0,0,1,70,476.42v-4.21a1.09,1.09,0,0,1,2.18,0v4.21A1.09,1.09,0,0,1,71.05,477.51Z" fill="#ba68c8"/><path d="M133.12,620.45s-14.91,29.69-9.94,33.13c0,0,14.14,14.53,28.67,7.26,0,0,11.09-4.2,9.94-14.14l-8.41-27.14Z" fill="#8d3165"/><path d="M180.52,615.73v10.46a3,3,0,0,0,2.52,2.95c10,1.57,46.46,6.75,56.1-.22a3.37,3.37,0,0,0,.52-.48c.71-.82,2.5-3.23,1.06-5.13a3,3,0,0,0-2.31-1.1c-5.56-.17-32.72-1.52-36.1-12Z" fill="#8d3165"/><polygon points="140.57 149.13 146.6 145.8 167.2 149.13 175.55 147.47 185.3 147.47 203.98 199.84 208.37 325.95 177.65 325.65 140.57 149.13" fill="#e6e7e8"/><polygon points="126.11 362.13 130.9 607.1 157.34 610.21 191.57 325.95 126.11 325.95 126.11 362.13" fill="#2f2e41"/><polygon points="177.65 603.99 201.98 600.88 218.54 322.38 173.94 325.95 177.65 603.99" fill="#2f2e41"/><path d="M165,167.48l6.69-18.35,12.81,10.13.76-3.63-7.65-16.44s-4.66-2.76-7.87-.81l-28.64-1.1s-3.93,3.57-4.7,8Z" fill="#2f2e41"/><path d="M175.55,212.78l-5.16,7.08c-2.29.19-6.88,8-6.88,8-3.49-1-7.27,2.11-7.27,2.11l-26.18,25.42c-5.78-11.86-4.54-46-3.9-58.16a57.32,57.32,0,0,0-.91-14c-2.11-10.76-5.9-13.46-5.9-13.46-11.35-9.07-20.26-2-20.26-2a13.55,13.55,0,0,1,7.46-11.18s12.36-8.45,18.63-11.27c.76-.34,1.49-.73,2.24-1.12,2.34-1.22,9.91-2.79,24,15.07C151.47,159.26,168.29,180.29,175.55,212.78Z" fill="#8d3165"/><path d="M126.39,294.66a31.58,31.58,0,0,1-2.26,14.27s-10.89,35.75-4.4,49.32c0,0,26,17.78,46.84,15.1,0,0,5.92.65,10.32-17.39,0,0,8.22-38.81,1.53-120.24,0,0-3.45,3.07-4.4,3.63,0,0,.58,4.59-1.72,7.08,0,0-36.14,42.1-45.06,46.65A1.6,1.6,0,0,0,126.39,294.66Z" fill="#8d3165"/><path d="M115,289.9a10.3,10.3,0,0,0,2,2.64c6,5.45,13.37-1.58,13.37-1.58,15.41-12.94,42-44.53,42-44.53,3.25-4,1.72-7.08,1.72-7.08,7.27-4,5.35-8.6,5.35-8.6-9.55-5.16-9-10.89-9-10.89-2.48.57-6.88,8-6.88,8-2.87-1.72-7.27,2.11-7.27,2.11l-26.18,25.42c-6.5-18-3.56-61.72-3.56-61.72.89-25.13-12.76-27.45-12.76-27.45-12.11-4.49-16.94,4.11-16.94,4.11s-8.8,12.23-4,52C92.78,222.34,93.72,250.31,115,289.9Z" fill="#8d3165"/><path d="M115,289.9a10.3,10.3,0,0,0,2,2.64c6,5.45,13.37-1.58,13.37-1.58,15.41-12.94,42-44.53,42-44.53,3.25-4,1.72-7.08,1.72-7.08,7.27-4,5.35-8.6,5.35-8.6-9.55-5.16-9-10.89-9-10.89-2.48.57-6.88,8-6.88,8-2.87-1.72-7.27,2.11-7.27,2.11l-26.18,25.42c-6.5-18-3.56-61.72-3.56-61.72.89-25.13-12.76-27.45-12.76-27.45-12.11-4.49-16.94,4.11-16.94,4.11s-8.8,12.23-4,52C92.78,222.34,93.72,250.31,115,289.9Z" fill="#231f20" opacity="0.2"/><path d="M205.12,356.28s3.68-106.26-4-133.93c0,0-3.25-50.22-15.8-66.72l-7.65-16.44s19.31,3.76,23.9,7.07c0,0,17.58,24.85,21,84.49,0,0,7.1,83.83,1.74,114.7a24.13,24.13,0,0,1-5.26,11.37C213.43,363.55,203.25,373.68,205.12,356.28Z" fill="#8d3165"/><g opacity="0.2"><path d="M196.79,324.12l-1,.08L198.8,319c-.47-4.69-11.53-115.64-13.94-128.27-.09-.32-9.76-35.89-13.5-41.31l.74-.5c3.82,5.54,13.23,40.14,13.63,41.61,2.47,12.91,13.85,127.38,14,128.53v.15Z" fill="#231f20"/></g><polygon points="207.95 197.92 182.18 162.83 178.7 166 199.31 194.91 207.95 197.92" fill="#2f2e41"/><path d="M211.27,202.65s3.53,5.29,2.77,7.84c0,0-5.16-1.39-7.14-5.74" fill="#2f2e41"/><path d="M222.87,234.45l11.81,12.49,2.8-33.9-22.39-32.67A331.72,331.72,0,0,1,222.87,234.45Z" fill="#8d3165"/><path d="M222.87,234.45l11.81,12.49,2.8-33.9-22.39-32.67A331.72,331.72,0,0,1,222.87,234.45Z" fill="#231f20" opacity="0.2"/><polygon points="231.37 281.6 240.93 169.2 317 152.38 299.8 261.34 231.37 281.6" fill="#ccc"/><path d="M309,182.65l6.9-3.28a3.82,3.82,0,0,1,5.25,2.2h0a3.81,3.81,0,0,1-2.37,4.84l-7.24,2.48a3.37,3.37,0,0,1-4.46-3.19h0A3.39,3.39,0,0,1,309,182.65Z" fill="#f9b499"/><path d="M309.13,190.21l-3.54,1.55a2.81,2.81,0,0,0-1.49,3.62h0a2.81,2.81,0,0,0,3.57,1.61l10.62-3.84A3,3,0,0,0,320,189h0a3,3,0,0,0-3.87-1.56Z" fill="#f9b499"/><path d="M317,199.46l-7.94,4.4a3.06,3.06,0,0,1-4.42-1.82h0a3.06,3.06,0,0,1,1.71-3.65l9-3.95a2.56,2.56,0,0,1,3.54,1.86h0a2.56,2.56,0,0,1-1,2.57Z" fill="#f9b499"/><path d="M311.73,202.38,307,204.94a2.42,2.42,0,0,0-.73,3.63h0a2.41,2.41,0,0,0,3.42.38l7.94-6.43a1.52,1.52,0,0,0,.14-2.21h0A1.51,1.51,0,0,0,316,200Z" fill="#f9b499"/><path d="M282.4,160s-47.88,40.59-18.87,112l-32.16,9.52,9.56-112.4Z" fill="#231f20" opacity="0.2"/><rect x="126.1" y="607.32" width="35.68" height="16.82" rx="2.57" fill="#2f2e41"/><rect x="173.73" y="599.8" width="35.68" height="16.82" rx="2.57" transform="translate(-97 39.57) rotate(-9.42)" fill="#2f2e41"/><polygon points="368.63 629.3 326.39 629.3 314.51 428.16 422.11 418.39 422.11 629.3 368.63 629.3" fill="#2f2e41"/><polygon points="368.63 629.3 326.39 629.3 314.51 428.16 422.11 418.39 422.11 629.3 368.63 629.3" opacity="0.2"/><polygon points="490.22 427.19 504.75 658.1 631.67 660.9 781.02 657.34 795.81 427.19 628.61 412.66 490.22 427.19" fill="#ccc"/><polygon points="631.67 660.9 628.61 412.66 795.81 427.19 781.02 657.34 631.67 660.9" opacity="0.2"/><polygon points="531.71 422.83 533.8 470.26 574.07 470.26 574.07 418.39 531.71 422.83" opacity="0.2"/><polygon points="640.34 280.13 640.34 413.68 746.45 422.9 757.58 287.77 640.34 280.13" fill="#ccc"/><polygon points="722.4 313.26 687.74 313.26 687.74 283.22 722.4 285.48 722.4 313.26" fill="#fff" opacity="0.2"/><polygon points="499.14 287.65 509.36 425.18 628.61 412.66 640.34 413.68 640.34 280.13 499.14 287.65" fill="#ccc"/><polygon points="499.14 287.65 509.36 425.18 628.61 412.66 640.34 413.68 640.34 280.13 499.14 287.65" fill="#fff" opacity="0.2"/><polygon points="617.91 194.49 620.94 281.16 640.34 280.13 744.35 286.91 754.01 207.75 617.91 194.49" fill="#ccc"/><polygon points="617.91 194.49 620.94 281.16 640.34 280.13 744.35 286.91 754.01 207.75 617.91 194.49" opacity="0.1"/><polygon points="518.07 286.64 508.82 207.75 617.91 194.49 620.94 281.16 518.07 286.64" fill="#ccc"/><polygon points="518.07 286.64 508.82 207.75 617.91 194.49 620.94 281.16 518.07 286.64" opacity="0.2"/><polygon points="626.57 101.72 629.15 195.59 708.62 203.33 712.72 109.88 626.57 101.72" fill="#ccc"/><polygon points="626.57 101.72 629.15 195.59 708.62 203.33 712.72 109.88 626.57 101.72" opacity="0.2"/><polygon points="553.68 109.36 558.78 201.68 617.91 194.49 629.15 195.59 626.57 101.72 553.68 109.36" fill="#ccc"/><polygon points="539.89 203.97 543.49 228.13 574.58 225.08 574.58 199.76 539.89 203.97" fill="#ccc"/><polygon points="574.58 107.17 577.13 138.42 598.54 138.42 598.54 104.66 574.58 107.17" opacity="0.2"/><polygon points="362.46 507.62 369.79 652.11 447.54 653.95 504.34 651.73 495.02 503.58 449.37 499.92 362.46 507.62" fill="#2f2e41"/><polygon points="447.54 653.95 449.37 499.92 495.02 503.58 504.34 651.73 447.54 653.95" opacity="0.2"/><polygon points="478.42 502.25 478.42 535.13 497.01 535.13 495.02 503.58 478.42 502.25" fill="#3f3d56"/><polygon points="509.19 422.9 422.11 418.39 422.11 502.25 449.37 499.92 495.02 503.58 490.22 427.19 509.36 425.18 509.19 422.9" fill="#2f2e41"/><polygon points="509.19 422.9 422.11 418.39 422.11 502.25 449.37 499.92 495.02 503.58 490.22 427.19 509.36 425.18 509.19 422.9" fill="#fff" opacity="0.1"/><polygon points="433.4 301.54 433.4 418.97 422.11 418.39 327.82 426.95 327.82 307.65 433.4 301.54" fill="#2f2e41"/><polygon points="433.4 301.54 500.59 307.15 509.19 422.9 433.4 418.97 433.4 301.54" fill="#2f2e41"/><polygon points="433.4 301.54 500.59 307.15 509.19 422.9 433.4 418.97 433.4 301.54" opacity="0.2"/><polygon points="460.75 303.78 460.75 325.95 502.12 327.72 500.59 307.15 460.75 303.78" fill="#3f3d56"/><path d="M179.37,230.75s8.07-3.15,13.64-14.91l-.46,4.17a3.15,3.15,0,0,0,3.16,3.5c2.5,0,5.56-.44,6.37-2.3l1-5.37s5.57-.41,4.12-6.8c0,0,1.77-2.73,1-4.11a.42.42,0,0,1,.35-.64h7.67A1.69,1.69,0,0,0,218,202.6h0a1.68,1.68,0,0,0-1.13-1.59l-22.38-7.78a6.71,6.71,0,0,0-7.84,2.67l-11.07,16.88-5.16,7.08S169.45,225,179.37,230.75Z" fill="#f9b499"/><path d="M141.14,137.28l-2.86-25,31.35,12.91s-1.34,12,2.1,22.36C171.73,147.6,147.26,137.85,141.14,137.28Z" fill="#f9b499"/><path d="M169.39,132.79l.78-4.4s-14.86,2.2-22.84-6.5C147.33,121.89,152.48,133.35,169.39,132.79Z" fill="#f4a48e"/><ellipse cx="160.69" cy="86.14" rx="30.92" ry="43.3" transform="translate(-14.96 37.27) rotate(-12.65)" fill="#f9b499"/><ellipse cx="124.56" cy="90.34" rx="6.31" ry="10.18" transform="translate(-27.81 68.93) rotate(-27.96)" fill="#f9b499"/><path d="M134.59,83.6s-3.51-.36-5.2,2.54c0,0-8.57-12.08-12.15,0l-7.56-21.29a22.45,22.45,0,0,1-1.06-11.31c1-5.73,4.56-11.87,15.94-8.36,0,0,7.74-30.4,51.32-16.06,0,0,11.18-7.45,5.45,14.91l4.18.23a.88.88,0,0,1,.8,1.11c-.9,3-6.23,11.4-37.67,7.55,0,0-15.62-.78-14.11,6.43,0,0,3.2,4.28-.27,9.83a12.66,12.66,0,0,0-.2,13.63C134.23,83.07,134.4,83.33,134.59,83.6Z" fill="#2f2e41"/><path d="M139.34,113.19s-6.8.72-14.78-14.11c0,0,4.1,2.84,6.91-2.45C131.47,96.63,135,107.9,139.34,113.19Z" fill="#2f2e41"/></svg>