<svg id="svg" xmlns="http://www.w3.org/2000/svg" xmlns:xlink="http://www.w3.org/1999/xlink" width="400" height="400" viewBox="0, 0, 400,400">
    <style>
		path {
			fill: #000;
		}
		@media ( prefers-color-scheme: dark ) {
			path {
				fill: #fff;
			}
		}
    </style>
    <g id="svgg"><path id="path0" d="M5.657 14.046 C -2.052 18.783,-2.052 31.242,5.657 35.942 C 8.095 37.428,9.655 37.494,42.321 37.497 L 76.438 37.500 76.891 39.648 C 78.054 45.165,110.935 244.352,110.936 245.887 C 110.937 246.848,105.664 255.566,99.219 265.260 C 84.935 286.744,83.917 292.010,92.871 298.095 L 95.675 300.000 243.736 299.997 C 390.099 299.994,391.826 299.976,394.343 298.442 C 401.822 293.882,402.080 281.572,394.798 276.800 C 392.752 275.459,386.109 275.372,258.457 275.000 L 124.267 274.609 130.883 264.577 C 137.137 255.094,137.500 254.312,137.500 250.308 C 137.500 243.812,101.798 30.836,100.045 26.872 C 98.041 22.343,93.062 17.129,88.529 14.813 L 84.766 12.891 46.484 12.686 C 9.366 12.488,8.126 12.529,5.657 14.046 M130.657 64.058 C 126.845 66.383,125.006 69.943,125.006 75.000 C 125.006 80.057,126.845 83.617,130.657 85.942 C 133.168 87.473,134.838 87.494,252.201 87.497 C 365.166 87.500,371.178 87.569,370.792 88.867 C 370.569 89.619,369.471 93.926,368.353 98.438 C 367.235 102.949,365.975 107.959,365.552 109.570 L 364.784 112.500 292.743 112.503 C 211.928 112.506,217.759 112.087,214.058 118.157 C 210.604 123.822,212.619 132.565,218.157 135.942 C 222.112 138.353,377.841 138.382,381.793 135.972 C 385.922 133.455,386.650 131.484,393.433 104.484 C 401.533 72.241,401.625 69.160,394.629 64.405 L 391.825 62.500 262.514 62.503 C 134.860 62.506,133.170 62.526,130.657 64.058 M358.832 151.528 C 354.713 154.039,353.970 156.033,347.523 181.844 C 344.117 195.482,340.982 207.959,340.557 209.570 L 339.784 212.500 248.993 212.503 C 159.777 212.506,158.159 212.533,155.657 214.058 C 147.949 218.758,147.949 231.242,155.657 235.942 C 158.162 237.469,159.790 237.494,256.250 237.494 C 365.406 237.494,357.030 237.899,360.601 232.449 C 362.479 229.583,378.076 166.886,378.103 162.095 C 378.157 152.514,367.131 146.468,358.832 151.528 M180.657 164.058 C 176.845 166.383,175.006 169.943,175.006 175.000 C 175.006 180.057,176.845 183.617,180.657 185.942 C 183.140 187.456,184.709 187.494,243.750 187.494 C 311.616 187.494,307.274 187.859,310.942 181.843 C 314.396 176.178,312.381 167.435,306.843 164.058 C 302.856 161.628,184.644 161.628,180.657 164.058 M163.095 314.017 C 143.665 320.228,132.577 342.399,139.129 361.939 C 152.722 402.478,212.500 392.616,212.500 349.834 C 212.500 324.070,187.758 306.133,163.095 314.017 M325.595 314.017 C 306.165 320.228,295.077 342.399,301.629 361.939 C 315.222 402.478,375.000 392.616,375.000 349.834 C 375.000 324.070,350.258 306.133,325.595 314.017 M181.062 339.840 C 191.224 346.036,186.879 361.713,175.000 361.713 C 172.867 361.713,170.483 361.102,168.938 360.160 C 158.776 353.964,163.121 338.287,175.000 338.287 C 177.133 338.287,179.517 338.898,181.062 339.840 M343.562 339.840 C 353.724 346.036,349.379 361.713,337.500 361.713 C 330.834 361.713,325.787 356.666,325.787 350.000 C 325.787 343.334,330.834 338.287,337.500 338.287 C 339.633 338.287,342.017 338.898,343.562 339.840 " stroke="none" fill="#000000" fill-rule="evenodd"></path></g>
</svg>